<?xml version="1.0" standalone="no"?>
<!DOCTYPE svg PUBLIC "-//W3C//DTD SVG 20010904//EN"
        "http://www.w3.org/TR/2001/REC-SVG-20010904/DTD/svg10.dtd">
<svg version="1.0" xmlns="http://www.w3.org/2000/svg"
     width="512.000000pt" height="512.000000pt" viewBox="0 0 512.000000 512.000000"
     preserveAspectRatio="xMidYMid meet">

    <g transform="translate(0.000000,512.000000) scale(0.100000,-0.100000)"
       fill="#ffcc00" stroke="none">
        <path d="M2320 5110 c-600 -62 -1140 -319 -1565 -745 -398 -397 -646 -890
-731 -1450 -26 -169 -26 -541 0 -710 113 -741 515 -1370 1146 -1790 128 -85
364 -204 513 -259 136 -50 336 -101 497 -128 195 -31 565 -31 760 0 549 90
1023 329 1411 712 465 460 731 1048 765 1697 l7 123 -299 0 -300 0 -12 -147
c-22 -266 -76 -461 -192 -698 -105 -213 -197 -344 -363 -514 -165 -168 -335
-291 -543 -392 -913 -445 -2007 -116 -2533 763 -112 187 -201 429 -243 658
-30 165 -30 495 0 660 118 645 539 1185 1131 1450 513 230 1120 223 1626 -19
95 -45 251 -138 305 -180 l25 -20 -114 -115 -114 -114 39 -8 c21 -4 260 -51
529 -104 270 -54 491 -97 492 -97 0 1 -43 223 -97 492 -53 270 -100 508 -104
529 l-7 39 -97 -96 -97 -96 -80 60 c-338 251 -753 423 -1165 484 -133 19 -464
28 -590 15z"/>
        <path d="M2420 3904 c-318 -39 -586 -169 -811 -393 -197 -196 -318 -421 -376
-701 -24 -118 -24 -382 0 -500 58 -280 179 -505 376 -701 199 -199 422 -318
701 -376 106 -22 370 -24 480 -4 41 7 129 31 194 52 208 68 358 161 522 324
204 202 319 415 381 706 25 117 25 381 0 498 -62 291 -178 506 -381 706 -199
197 -426 319 -688 370 -81 16 -328 28 -398 19z m743 -1044 c82 -83 97 -102 88
-117 -5 -10 -197 -205 -425 -433 l-416 -415 -275 275 c-151 151 -275 279 -275
284 0 13 192 206 205 206 5 0 85 -75 177 -167 l168 -168 318 318 c174 174 321
317 327 317 6 0 54 -45 108 -100z"/>
    </g>
</svg>
