<svg width="838" height="236" viewBox="0 0 838 236" fill="none" xmlns="http://www.w3.org/2000/svg">
    <path d="M80.1605 176.165L77.5693 177.658L77.5712 174.668C77.5712 174.668 77.5353 176.197 78.2256 176.579C78.9015 176.954 80.1605 176.165 80.1605 176.165Z"
          fill="#8E3315"/>
    <path d="M13.6689 173.078C28.2724 200.691 53.2489 221.369 83.1038 230.568C112.959 239.768 145.247 236.734 172.865 222.131C200.483 207.528 221.168 182.553 230.372 152.702C239.573 122.85 236.476 90.5651 221.873 62.9517C235.042 104.45 189.195 119.029 189.195 119.029L133.707 148.027L76.0385 178.102C76.0385 178.102 36.7349 203.402 13.6689 173.078Z"
          fill="#473ADE"/>
    <path d="M13.4634 173.281C28.0668 200.894 53.0433 221.575 82.8982 230.775C112.753 239.975 145.041 236.94 172.659 222.337C200.278 207.734 220.963 182.759 230.165 152.908C239.368 123.056 236.333 90.7722 221.73 63.1587C234.9 104.657 188.989 119.235 188.989 119.235L133.501 148.233L75.8329 178.308C75.8329 178.308 36.5296 203.605 13.4634 173.281Z"
          fill="url(#paint0_linear)"/>
    <path d="M189.487 116.932L191.852 118.209L188.49 119.427C188.49 119.427 190.218 118.83 190.464 118.171C190.707 117.527 189.487 116.932 189.487 116.932Z"
          fill="#292282"/>
    <path d="M222.587 171.848C236.848 144.055 239.482 111.737 229.91 82.0015C220.339 52.2658 199.346 27.5496 171.55 13.2893C143.753 -0.970964 111.43 -3.60678 81.691 5.96162C51.9522 15.53 27.2337 36.519 12.9731 64.3108C39.4355 29.7368 77.6952 58.9992 77.6952 58.9992L133.262 87.846L190.96 117.862C190.96 117.862 234.218 135.569 222.587 171.848Z"
          fill="#D71D6A"/>
    <path d="M222.304 171.735C236.523 144.025 239.149 111.803 229.607 82.1561C220.063 52.5093 199.133 27.8663 171.419 13.6486C143.706 -0.569276 111.479 -3.19713 81.8285 6.34261C52.1782 15.8827 27.5331 36.8091 13.3149 64.5184C39.6983 30.0471 77.8442 59.2222 77.8442 59.2222L133.246 87.9831L190.773 117.91C190.773 117.91 233.9 135.564 222.304 171.735Z"
          fill="url(#paint1_linear)"/>
    <path d="M77.5865 61.7898L77.5381 58.6587L80.2744 60.1823C80.2744 60.1823 78.8929 59.3709 78.1918 59.808C77.505 60.2362 77.5865 61.7898 77.5865 61.7898Z"
          fill="#741039"/>
    <path d="M117.789 0.272461C86.5491 0.272461 56.5892 12.682 34.4994 34.771C12.4098 56.8601 0 86.8194 0 118.058C0 149.297 12.4098 179.256 34.4994 201.346C56.5892 223.435 86.5491 235.845 117.789 235.845C77.6952 229.113 77.6952 177.174 77.6952 177.174V118.058V57.8971C77.6952 57.8971 77.6952 7.44795 117.789 0.272461Z"
          fill="#FF5B25"/>
    <path d="M117.789 0C86.5491 0 56.5892 12.4096 34.4994 34.4987C12.4098 56.5877 0 86.5469 0 117.786C0 149.025 12.4098 178.984 34.4994 201.073C56.5892 223.162 86.5491 235.572 117.789 235.572C77.6952 222.763 77.6952 177.241 77.6952 177.241V117.931V59C77.6952 59 76.2366 7.63268 117.789 0Z"
          fill="url(#paint2_linear)"/>
    <path d="M117.479 235.793C77.6952 217.673 77.7419 177.222 77.7419 177.222C77.7419 177.222 28.4319 205.036 11.8315 169.461C11.8315 169.461 39.6593 236.029 117.479 235.793Z"
          fill="#473ADE"/>
    <path d="M326.67 86.783C322.735 86.783 319.291 87.6154 316.34 89.2803C313.389 90.9452 310.891 93.2156 308.848 96.0913C306.88 98.967 305.367 102.297 304.307 106.081C303.324 109.865 302.832 113.838 302.832 118C302.832 121.935 303.324 125.795 304.307 129.579C305.367 133.287 306.88 136.617 308.848 139.568C310.891 142.444 313.389 144.79 316.34 146.606C319.291 148.347 322.735 149.217 326.67 149.217C329.773 149.217 332.762 148.536 335.638 147.174C338.514 145.736 341.049 143.692 343.243 141.044C345.438 138.395 347.179 135.141 348.465 131.281C349.827 127.422 350.508 122.995 350.508 118C350.508 113.535 349.941 109.411 348.806 105.627C347.746 101.767 346.195 98.4751 344.151 95.7508C342.108 92.9507 339.611 90.756 336.659 89.1668C333.708 87.5776 330.378 86.783 326.67 86.783ZM326.67 160.909C320.086 160.909 314.259 159.812 309.189 157.617C304.118 155.422 299.805 152.433 296.248 148.649C292.767 144.79 290.118 140.249 288.302 135.027C286.485 129.806 285.577 124.13 285.577 118C285.577 112.097 286.485 106.535 288.302 101.313C290.193 96.0913 292.88 91.5507 296.361 87.6911C299.918 83.7559 304.232 80.691 309.302 78.4963C314.372 76.226 320.162 75.0908 326.67 75.0908C334.086 75.0908 340.368 76.3773 345.514 78.9504C350.735 81.5234 354.973 84.891 358.227 89.0533C361.557 93.1399 363.941 97.7562 365.379 102.902C366.893 107.973 367.649 113.005 367.649 118C367.649 123.6 366.741 128.973 364.925 134.119C363.109 139.265 360.46 143.844 356.979 147.855C353.573 151.79 349.298 154.968 344.151 157.39C339.081 159.736 333.254 160.909 326.67 160.909Z"
          fill="white"/>
    <path d="M386.614 76.7936H407.16L425.209 140.476L426.004 144.563L426.912 140.476L444.847 76.7936H465.507L473.226 159.32H458.356L453.929 97.1129L453.588 91.6642L452.226 97.1129L434.29 158.185H417.603L399.441 96.9994L398.079 91.6642L397.738 96.9994L393.538 159.32H378.667L386.614 76.7936Z"
          fill="white"/>
    <path d="M507.897 101.54L506.08 97.4535L506.307 101.313V159.32H492.459V76.7936H508.124L542.973 132.303L544.562 136.844L544.335 132.303V76.7936H558.638V159.32H544.335L507.897 101.54Z"
          fill="white"/>
    <path d="M595.34 159.32H579.562V76.7936H595.34V159.32Z" fill="white"/>
    <path d="M614.26 76.7936H663.753V88.4857H630.492V159.32H614.26V76.7936ZM634.806 121.746C635.184 120.535 635.676 119.249 636.282 117.886C636.887 116.524 637.644 115.276 638.552 114.14C639.46 113.005 640.52 112.097 641.73 111.416C643.017 110.659 644.493 110.281 646.158 110.281H659.893V121.746H634.806Z"
          fill="white"/>
    <path d="M680.438 76.7936H696.784V147.514H726.525V159.32H680.438V76.7936Z" fill="white"/>
    <path d="M756.635 159.32H740.857V76.7936H756.635V159.32Z" fill="white"/>
    <path d="M770.673 76.7936H788.609L802.571 103.924L803.706 107.443L804.615 103.924L818.577 76.7936H836.399L811.766 117.546L837.648 159.32H820.053L770.673 76.7936ZM786.793 159.32H769.425L791.901 122.427C792.582 123.411 793.376 124.697 794.285 126.287C795.193 127.876 795.912 129.616 796.441 131.508C797.047 133.325 797.349 135.254 797.349 137.298C797.425 139.265 796.971 141.119 795.987 142.86L786.793 159.32Z"
          fill="white"/>
    <defs>
        <linearGradient id="paint0_linear" x1="221.74" y1="104.629" x2="50.3688" y2="273.846"
                        gradientUnits="userSpaceOnUse">
            <stop stop-opacity="0.6"/>
            <stop offset="0.655513" stop-opacity="0"/>
        </linearGradient>
        <linearGradient id="paint1_linear" x1="47.1952" y1="40.8138" x2="283.381" y2="84.1496"
                        gradientUnits="userSpaceOnUse">
            <stop stop-opacity="0.6"/>
            <stop offset="0.645833" stop-opacity="0"/>
        </linearGradient>
        <linearGradient id="paint2_linear" x1="63.0793" y1="220.982" x2="-6.98076" y2="5.16915"
                        gradientUnits="userSpaceOnUse">
            <stop stop-opacity="0.6"/>
            <stop offset="0.675464" stop-opacity="0"/>
        </linearGradient>
    </defs>
</svg>
